<svg width="33" height="32" viewBox="0 0 33 32" fill="none" xmlns="http://www.w3.org/2000/svg">
<path d="M11.3374 6.375C13.8621 1.875 20.1736 1.875 22.6983 6.375L30.2722 19.875C32.7968 24.375 29.641 30 24.5918 30H9.44397C4.39471 30 1.23892 24.375 3.76355 19.875L11.3374 6.375Z" fill="#FFFBEF"/>
<path d="M11.3374 6.375C13.8621 1.875 20.1736 1.875 22.6983 6.375C22.6983 6.375 19.4804 4.5 16.875 7.5C14.2696 10.5 8.375 20 6.875 24.5C5.375 29 9.44397 30 9.44397 30C4.39471 30 1.23892 24.375 3.76355 19.875L11.3374 6.375Z" fill="white"/>
<path d="M11.875 19H21.875V30H11.875V19Z" fill="#666666"/>
<circle cx="13.375" cy="6.5" r="0.5" fill="#FDB97E"/>
<circle cx="12.375" cy="9.5" r="0.5" fill="#FDB97E"/>
<circle cx="16.375" cy="5.5" r="0.5" fill="#FDB97E"/>
<circle cx="16.375" cy="8.5" r="0.5" fill="#FDB97E"/>
<circle cx="18.375" cy="7.5" r="0.5" fill="#FDB97E"/>
<circle cx="14.375" cy="8.5" r="0.5" fill="#FDB97E"/>
</svg>
