<svg width="33" height="32" viewBox="0 0 33 32" fill="none" xmlns="http://www.w3.org/2000/svg">
<rect x="3.25" y="4" width="20" height="25.3333" rx="2" fill="white" stroke="#666666"/>
<rect x="27.25" y="4" width="1.33333" height="25.3333" rx="0.666667" fill="#D77F4A"/>
<rect x="29.917" y="4" width="1.33333" height="25.3333" rx="0.666667" fill="#D77F4A"/>
<rect x="23.25" y="16" width="1.33333" height="20" rx="0.666667" transform="rotate(90 23.25 16)" fill="#666666"/>
<rect x="12.583" y="17.3333" width="1.33333" height="13.3333" rx="0.666667" transform="rotate(-180 12.583 17.3333)" fill="#666666"/>
<path d="M11.2497 10.6667C11.2497 14.6667 9.75729 14.6667 7.91634 14.6667C6.07539 14.6667 4.58301 14.6667 4.58301 10.6667C4.58301 8.45755 6.07539 6.66669 7.91634 6.66669C9.75729 6.66669 11.2497 8.45755 11.2497 10.6667Z" fill="#EBEBEB"/>
<path d="M16.583 10.3031C16.583 13.9394 15.6876 14.6667 14.583 14.6667C13.4784 14.6667 12.583 13.2121 12.583 10.3031C12.583 7.89308 13.4784 6.66669 14.583 6.66669C15.6876 6.66669 16.583 7.89308 16.583 10.3031Z" fill="#3BC3AF"/>
<path d="M19.25 10.3031C19.25 13.9394 18.3546 14.6667 17.25 14.6667C16.1454 14.6667 15.25 13.2121 15.25 10.3031C15.25 7.89308 16.1454 6.66669 17.25 6.66669C18.3546 6.66669 19.25 7.89308 19.25 10.3031Z" fill="#D77F4A"/>
<path d="M21.917 10.3031C21.917 13.9394 21.0216 14.6667 19.917 14.6667C18.8124 14.6667 17.917 13.2121 17.917 10.3031C17.917 7.89308 18.8124 6.66669 19.917 6.66669C21.0216 6.66669 21.917 7.89308 21.917 10.3031Z" fill="#3BC3AF"/>
<circle cx="7.91699" cy="11.3333" r="2" fill="#FDCD24"/>
<circle cx="13.2503" cy="22.6666" r="1.33333" fill="#FF6868"/>
<ellipse cx="7.58333" cy="20.5333" rx="0.333333" ry="0.533333" fill="#FDB97E"/>
<ellipse cx="10.2495" cy="25.8666" rx="0.333333" ry="0.533333" transform="rotate(30 10.2495 25.8666)" fill="#FDB97E"/>
<ellipse cx="19.8052" cy="25.9619" rx="0.333333" ry="0.533333" transform="rotate(30 19.8052 25.9619)" fill="#FDB97E"/>
<ellipse cx="19.8786" cy="21.8887" rx="0.333333" ry="0.533333" transform="rotate(60 19.8786 21.8887)" fill="#FDB97E"/>
<ellipse cx="14.4722" cy="19.2952" rx="0.333333" ry="0.533333" transform="rotate(30 14.4722 19.2952)" fill="#FDB97E"/>
<ellipse cx="17.1844" cy="24.46" rx="0.333333" ry="0.533333" transform="rotate(-75 17.1844 24.46)" fill="#FDB97E"/>
<ellipse cx="6.24968" cy="24.5333" rx="0.333333" ry="0.533333" transform="rotate(-30 6.24968 24.5333)" fill="#FDB97E"/>
</svg>
