<svg width="33" height="32" viewBox="0 0 33 32" fill="none" xmlns="http://www.w3.org/2000/svg">
<path d="M18.3753 16.5C19.8922 16.5 21.2877 16.2703 22.3221 15.8824C22.8375 15.6891 23.2893 15.4469 23.6212 15.1526C23.9526 14.8588 24.2087 14.4705 24.2087 14C24.2087 13.843 24.1494 13.717 24.1006 13.6369C24.0492 13.5526 23.985 13.4794 23.9228 13.4179C23.7981 13.295 23.6344 13.1741 23.4528 13.0591C23.0858 12.8268 22.5809 12.5784 21.994 12.3508C20.8215 11.896 19.2591 11.5 17.7087 11.5C16.1935 11.5 14.9496 11.7291 14.0643 12.1304C13.2002 12.5221 12.542 13.1519 12.542 14C12.542 14.4705 12.798 14.8588 13.1294 15.1526C13.4614 15.4469 13.9132 15.6891 14.4285 15.8824C15.463 16.2703 16.8585 16.5 18.3753 16.5Z" fill="#FFD772" stroke="#E8B70B"/>
<rect x="5.04199" y="8" width="1.33333" height="25.3333" rx="0.666667" transform="rotate(-90 5.04199 8)" fill="#D77F4A"/>
<rect x="5.04199" y="4" width="1.33333" height="10.6667" rx="0.666667" fill="#E8B70B"/>
<rect x="7.70801" y="4" width="1.33333" height="10.6667" rx="0.666667" fill="#E8B70B"/>
<rect x="10.375" y="4" width="1.33333" height="10.6667" rx="0.666667" fill="#E8B70B"/>
<rect x="13.042" y="4" width="1.33333" height="10.6667" rx="0.666667" fill="#E8B70B"/>
<rect x="6.375" y="4" width="1.33333" height="10.6667" rx="0.666667" fill="#FFD772"/>
<rect x="9.04199" y="4" width="1.33333" height="10.6667" rx="0.666667" fill="#FFD772"/>
<rect x="11.708" y="4" width="1.33333" height="10.6667" rx="0.666667" fill="#FFD772"/>
<rect x="7.70801" y="29.3333" width="2.66667" height="14.6667" rx="1" transform="rotate(-90 7.70801 29.3333)" fill="#FF6868"/>
<rect x="5.04199" y="5.33331" width="1.33333" height="25.3333" rx="0.666667" transform="rotate(-90 5.04199 5.33331)" fill="#D77F4A"/>
<path d="M27.2083 18.6808C27.2083 21.5599 26.5561 24.0724 24.7702 25.871C22.9839 27.6699 19.9712 28.8475 15.0417 28.8475C10.1121 28.8475 7.09942 27.6699 5.31314 25.871C3.52724 24.0724 2.875 21.5599 2.875 18.6808C2.875 17.1791 2.87881 16.1861 3.05741 15.4857C3.14265 15.1514 3.26167 14.9142 3.41958 14.7333C3.57665 14.5535 3.79817 14.3997 4.13472 14.2728C4.83571 14.0085 5.94108 13.8922 7.72991 13.8522C8.88849 13.8264 10.2966 13.8322 12.0195 13.8394C12.9348 13.8433 13.9389 13.8474 15.0417 13.8474C16.1444 13.8474 17.1486 13.8433 18.0639 13.8394C19.7867 13.8322 21.1948 13.8264 22.3534 13.8522C24.1423 13.8922 25.2476 14.0085 25.9486 14.2728C26.2852 14.3997 26.5067 14.5535 26.6638 14.7333C26.8217 14.9142 26.9407 15.1514 27.0259 15.4857C27.2045 16.1861 27.2083 17.1791 27.2083 18.6808Z" fill="#FF6868" stroke="#FF6868"/>
<rect x="3.375" y="17.33" width="1.33" height="23" rx="0.665" transform="rotate(-90 3.375 17.33)" fill="white"/>
</svg>
