<svg width="33" height="32" viewBox="0 0 33 32" fill="none" xmlns="http://www.w3.org/2000/svg">
<path d="M5.21591 2.12933H27.0341L28.125 29.4021H4.125L5.21591 2.12933Z" fill="#FEC165"/>
<path d="M5.21591 2.12933H23.7614L24.8523 29.4021H4.125L5.21591 2.12933Z" fill="#FFFBEF"/>
<path d="M4.86628 10.8566H24.1311L24.8523 29.402H4.125L4.86628 10.8566Z" fill="#FFD772"/>
<path d="M10.8685 19.5838C14.3396 19.5838 15.0338 20.8049 15.0338 22.3111C15.0338 23.8173 13.6454 25.0384 10.8685 25.0384C8.56811 25.0384 7.39746 23.8173 7.39746 22.3111C7.39746 20.8049 8.56811 19.5838 10.8685 19.5838Z" fill="#D77F4A"/>
<path d="M14.142 15.2203C17.613 15.2203 18.3073 16.4413 18.3073 17.9475C18.3073 19.4538 16.9188 20.6748 14.142 20.6748C11.8415 20.6748 10.6709 19.4538 10.6709 17.9475C10.6709 16.4413 11.8415 15.2203 14.142 15.2203Z" fill="#D77F4A"/>
<path d="M16.8195 19.5839C20.7864 19.5839 21.5798 21.0491 21.5798 22.8566C21.5798 24.6641 19.993 26.1293 16.8195 26.1293C14.1904 26.1293 12.8525 24.6641 12.8525 22.8566C12.8525 21.0491 14.1904 19.5839 16.8195 19.5839Z" fill="#D77F4A"/>
</svg>
