<svg width="33" height="32" viewBox="0 0 33 32" fill="none" xmlns="http://www.w3.org/2000/svg">
<path d="M2.75 27L12.6071 4H25.75L16.9881 27H2.75Z" fill="#FFE5A0"/>
<path fill-rule="evenodd" clip-rule="evenodd" d="M10.8381 4.61644C10.9996 4.24127 11.3565 4 11.75 4H23.75C24.0818 4 24.392 4.17208 24.5781 4.45934C24.7641 4.7466 24.8017 5.11163 24.6785 5.43373L16.6785 26.3428C16.5266 26.7397 16.1589 27 15.75 27H2.75C2.41067 27 2.0945 26.8201 1.91025 26.5222C1.72601 26.2243 1.69883 25.849 1.83808 25.5255L10.8381 4.61644ZM12.3966 6.09091L4.29659 24.9091H15.073L22.273 6.09091H12.3966Z" fill="#FFF1DD"/>
<path fill-rule="evenodd" clip-rule="evenodd" d="M9.58052 24.5995C9.18318 24.4032 9.0054 23.933 9.17352 23.523L16.0153 6.83689C16.2009 6.38442 16.731 6.18398 17.1695 6.40052C17.5668 6.59676 17.7446 7.06698 17.5765 7.47701L10.7347 24.1631C10.5491 24.6156 10.019 24.816 9.58052 24.5995Z" fill="#FF6868"/>
<path fill-rule="evenodd" clip-rule="evenodd" d="M5.58052 24.5995C5.18318 24.4032 5.0054 23.933 5.17352 23.523L12.0153 6.83689C12.2009 6.38442 12.731 6.18398 13.1695 6.40052C13.5668 6.59676 13.7446 7.06698 13.5765 7.47701L6.73467 24.1631C6.54914 24.6156 6.019 24.816 5.58052 24.5995Z" fill="#D77F4A"/>
<path fill-rule="evenodd" clip-rule="evenodd" d="M13.5805 24.5995C13.1832 24.4032 13.0054 23.933 13.1735 23.523L20.0153 6.83689C20.2009 6.38442 20.731 6.18398 21.1695 6.40052C21.5668 6.59676 21.7446 7.06698 21.5765 7.47701L14.7347 24.1631C14.5491 24.6156 14.019 24.816 13.5805 24.5995Z" fill="#3BC3AF"/>
<path d="M25.75 26H16.75L25.171 5L25.75 26Z" fill="#F2CE7E"/>
<path fill-rule="evenodd" clip-rule="evenodd" d="M10.8381 4.61644C10.9996 4.24127 11.3565 4 11.75 4H23.75C24.0818 4 24.392 4.17208 24.5781 4.45934C24.7641 4.7466 24.8017 5.11163 24.6785 5.43373L16.6785 26.3428C16.5266 26.7397 16.1589 27 15.75 27H2.75C2.41067 27 2.0945 26.8201 1.91025 26.5222C1.72601 26.2243 1.69883 25.849 1.83808 25.5255L10.8381 4.61644ZM12.3966 6.09091L4.29659 24.9091H15.073L22.273 6.09091H12.3966Z" fill="#FFE5A0"/>
<path fill-rule="evenodd" clip-rule="evenodd" d="M25.7254 4.01035C26.2232 4.07776 26.6086 4.46225 26.6586 4.94149L27.7446 25.8505C27.7753 26.1444 27.6747 26.437 27.4678 26.6561C27.2609 26.8751 26.9669 27 26.6586 27H16.8414C16.4793 27 16.1407 26.8279 15.9377 26.5407C15.7346 26.2534 15.6936 25.8884 15.8281 25.5663L24.5593 4.65724C24.746 4.21006 25.2275 3.94294 25.7254 4.01035ZM18.4534 24.9091H25.4526L24.9302 9.39882L18.4534 24.9091Z" fill="#F2CE7E"/>
</svg>
