<svg width="33" height="32" viewBox="0 0 33 32" fill="none" xmlns="http://www.w3.org/2000/svg">
<path d="M28.625 16.6001C28.625 22.8961 25.025 28.0001 16.625 28.0001C7.625 28.0001 4.625 22.8961 4.625 16.6001C4.625 10.304 9.99758 5.20007 16.625 5.20007C23.2524 5.20007 28.625 10.304 28.625 16.6001Z" fill="#FF6868"/>
<rect x="16.0254" y="4" width="1.2" height="7.2" rx="0.6" fill="#666666"/>
<path d="M19.4258 9.80324C19.7887 9.63506 20.2246 9.89581 20.2246 10.2958C20.2246 10.4838 20.1238 10.657 19.9568 10.7434C19.3407 11.0617 17.787 11.8 16.6246 11.8C15.4622 11.8 13.9085 11.0617 13.2924 10.7434C13.1254 10.657 13.0246 10.4838 13.0246 10.2958C13.0246 9.89581 13.4605 9.63506 13.8234 9.80324C14.5756 10.1518 15.7189 10.6 16.6246 10.6C17.5303 10.6 18.6736 10.1518 19.4258 9.80324Z" fill="#666666"/>
</svg>
