<svg width="33" height="32" viewBox="0 0 33 32" fill="none" xmlns="http://www.w3.org/2000/svg">
<ellipse cx="16.75" cy="16" rx="13.8279" ry="8.79955" transform="rotate(-45 16.75 16)" fill="#D77F4A"/>
<path d="M16.8806 8.89625C16.2605 8.79925 15.877 8.0963 16.1908 7.55277C16.3413 7.29202 16.6218 7.13394 16.9219 7.15842C17.6791 7.2202 19.1576 7.41268 20.1788 8.00225C21.2091 8.59708 22.4128 9.96505 23.0016 10.6785C23.2247 10.9489 23.2489 11.3277 23.0736 11.6314C22.7634 12.1687 21.9989 12.2227 21.5888 11.7572C20.9484 11.0302 20.04 10.097 19.2371 9.63338C18.5397 9.23077 17.6291 9.01334 16.8806 8.89625Z" fill="#AE591C"/>
<path d="M13.1091 11.4104C12.489 11.3134 12.1055 10.6105 12.4193 10.0669C12.5699 9.80618 12.8503 9.6481 13.1504 9.67258C13.9076 9.73436 15.3861 9.92684 16.4073 10.5164C17.4376 11.1112 18.6413 12.4792 19.2301 13.1926C19.4532 13.4631 19.4774 13.8419 19.3021 14.1456C18.9919 14.6828 18.2274 14.7369 17.8173 14.2714C17.1769 13.5444 16.2685 12.6111 15.4656 12.1475C14.7682 11.7449 13.8576 11.5275 13.1091 11.4104Z" fill="#AE591C"/>
<path d="M10.5954 15.1816C9.97533 15.0847 9.59183 14.3817 9.90564 13.8382C10.0562 13.5774 10.3366 13.4193 10.6367 13.4438C11.3939 13.5056 12.8725 13.6981 13.8936 14.2877C14.9239 14.8825 16.1276 16.2505 16.7164 16.9639C16.9396 17.2343 16.9638 17.6131 16.7885 17.9168C16.4783 18.4541 15.7138 18.5081 15.3037 18.0426C14.6632 17.3156 13.7549 16.3824 12.9519 15.9188C12.2546 15.5162 11.344 15.2987 10.5954 15.1816Z" fill="#AE591C"/>
</svg>
